<svg version="1.2" xmlns="http://www.w3.org/2000/svg" viewBox="0 0 47 54" width="47" height="54" fill="none">
	<style>
		.s0 { fill: #0000;stroke: currentColor;stroke-linejoin: round;stroke-width: 3 } 
		.s1 { fill: currentColor } 
	</style>
	<path id="Triangle" class="s0" d="m4.1 46c0-2 0-37.5 0-38.8 0-1.9 1.8-3.2 3.6-2.1 1.5 0.8 30.2 17.9 32.7 19.4 1.6 0.9 1.6 3.2 0 4.2-1.8 1-30.6 18.2-32.7 19.4-1.6 0.9-3.6-0.1-3.6-2.1z" />
	<path id="Cross line" class="s1" d="m4 5.8l2.1-1.8 25.2 29.7-2.1 1.8-25.2-29.7"/>
	<path id="Cross line" class="s1" d="m4.1 47.3l2.1 1.7 25-29.8-2.1-1.7-25 29.8"/>
</svg>